<?xml version="1.0" encoding="utf-8"?>
<!-- Generator: Adobe Illustrator 26.1.0, SVG Export Plug-In . SVG Version: 6.00 Build 0)  -->
<svg version="1.1" id="Слой_1" xmlns="http://www.w3.org/2000/svg" xmlns:xlink="http://www.w3.org/1999/xlink" x="0px" y="0px"
	 viewBox="0 0 84.6 8.6" style="enable-background:new 0 0 84.6 8.6;" xml:space="preserve">
<style type="text/css">
	.st0{fill:#FFFFFF;}
</style>
<path class="st0" d="M5.8,3c0-0.2-0.1-0.3-0.1-0.5c-0.3-0.7-1-1.1-1.7-1C1.9,1.5,1.8,4,1.8,4.3c0,0.9,0.3,1.8,1,2.5
	C3.2,7,3.6,7.1,4,7.1c0.4,0,0.7-0.1,1-0.3c0.5-0.4,0.8-1,0.8-1.6h1.9c0,0.7-0.3,1.4-0.7,2C6.2,8.2,5.1,8.7,4,8.6
	c-0.9,0-1.8-0.3-2.5-0.8C0.5,6.9,0,5.6,0,4.3c0-0.9,0.2-1.8,0.7-2.6C1.4,0.6,2.7-0.1,4,0c0.9,0,1.7,0.3,2.4,0.8
	C6.6,1,6.9,1.3,7.1,1.6c0.2,0.3,0.3,0.6,0.4,0.9c0,0.2,0.1,0.3,0.1,0.5L5.8,3z M10.4,8.5H8.6V0.2h1.8L10.4,8.5z M17.9,1.8h-2.5v6.8
	h-1.8V1.8h-2.5V0.2h6.8L17.9,1.8z M25.9,8.5H24l-0.6-1.9h-3.1l-0.7,1.9h-1.9l3.1-8.2h1.9L25.9,8.5z M21.9,2.1l-1.1,3.2h2.2L21.9,2.1
	z M29.6,0.2h0.8c0.7,0,1.4,0.3,1.9,0.7c0.9,0.8,1.5,2.1,1.4,3.3c0,0.3,0,0.6-0.1,0.9c-0.1,0.8-0.4,1.6-0.9,2.2
	c-0.3,0.4-0.7,0.7-1.2,0.9c-0.6,0.2-1.3,0.3-2,0.2h-3V0.2H29.6z M28.3,6.9h1.4c0.7,0.1,1.4-0.2,1.8-0.7C31.9,5.6,32,5,32,4.3
	c0-0.8-0.2-1.5-0.7-2.1c-0.2-0.2-0.4-0.3-0.6-0.4c-0.4-0.1-0.8-0.2-1.2-0.1h-1.1L28.3,6.9z M41,1.7h-4.4v1.8h4v1.4h-4v2h4.5v1.6
	h-6.3V0.2H41V1.7z M47.8,8.5h-5.7V0.2h1.8v6.7h3.9V8.5z M60.9,3c0-0.2-0.1-0.3-0.2-0.5c-0.3-0.6-0.9-1-1.6-1C57,1.5,57,4,57,4.3
	c0,0.9,0.3,1.8,1,2.4c0.3,0.2,0.7,0.4,1.2,0.4c0.4,0,0.7-0.1,1-0.3c0.5-0.4,0.8-1,0.8-1.6h1.8c0,0.7-0.3,1.4-0.7,2
	c-0.7,0.9-1.8,1.4-2.9,1.4c-0.9,0-1.7-0.2-2.4-0.8c-1-0.9-1.5-2.2-1.5-3.5c0-0.9,0.2-1.8,0.7-2.6C56.6,0.6,57.8,0,59.2,0
	c0.9,0,1.7,0.3,2.4,0.8C61.8,1,62,1.3,62.2,1.6c0.2,0.3,0.3,0.6,0.5,0.9c0,0.2,0.1,0.3,0.1,0.5L60.9,3z M70.7,5.1v0.6
	c0,0.7-0.2,1.4-0.7,1.9c-0.7,0.8-1.7,1.2-2.8,1.1c-0.9,0.1-1.8-0.2-2.6-0.8c-0.3-0.3-0.6-0.7-0.8-1.1c-0.2-0.6-0.3-1.1-0.2-1.7V0.2
	h1.8v5c0,0.2,0,0.5,0,0.7c0.1,0.6,0.4,1.3,1.7,1.3c0.3,0,0.7-0.1,1-0.2c0.6-0.4,0.6-1.1,0.6-1.8v-5h1.9L70.7,5.1z M77.7,8.5H72V0.2
	h1.8v6.7h3.9V8.5z M84.7,1.8h-2.5v6.8h-1.8V1.8h-2.5V0.2h6.8V1.8z"/>
</svg>
