<svg xmlns="http://www.w3.org/2000/svg" data-name="Слой 1" viewBox="0 0 84.63 8.65"><path d="M5.77 2.97a2 2 0 0 0-.12-.47 1.69 1.69 0 0 0-1.67-1C1.85 1.5 1.82 4 1.82 4.32a3.12 3.12 0 0 0 1 2.45 2 2 0 0 0 1.15.36 1.86 1.86 0 0 0 1-.3 2.21 2.21 0 0 0 .81-1.57h1.87a3.55 3.55 0 0 1-.73 2 3.45 3.45 0 0 1-2.94 1.35 3.8 3.8 0 0 1-2.46-.83A4.64 4.64 0 0 1 0 4.29a4.77 4.77 0 0 1 .73-2.57A3.72 3.72 0 0 1 4.01 0a3.65 3.65 0 0 1 2.37.8 3.5 3.5 0 0 1 .68.76 3.07 3.07 0 0 1 .41.94 2.64 2.64 0 0 1 .07.49ZM10.39 8.5H8.58V.21h1.81ZM17.85 1.75h-2.48V8.5h-1.81V1.75h-2.48V.21h6.77ZM25.93 8.5h-1.89l-.65-1.9h-3.06l-.68 1.9H17.8L20.94.26h1.86Zm-4.06-6.44L20.76 5.3h2.18ZM29.65.21h.79a3.44 3.44 0 0 1 1.93.67A4.24 4.24 0 0 1 33.8 4.2a6.11 6.11 0 0 1-.07.88 3.83 3.83 0 0 1-.92 2.22 3 3 0 0 1-1.16.9 5.87 5.87 0 0 1-2 .25h-3V.21Zm-1.31 6.73h1.38a1.91 1.91 0 0 0 1.77-.73 3.1 3.1 0 0 0 .5-1.92 2.87 2.87 0 0 0-.73-2.06 2.32 2.32 0 0 0-.61-.37 3 3 0 0 0-1.19-.14h-1.12ZM41.02 1.68h-4.37V3.5h4v1.4h-4v2h4.5v1.6h-6.34V.21h6.21ZM47.79 8.5H42.1V.21h1.81v6.68h3.88ZM60.91 2.97a2.13 2.13 0 0 0-.18-.47 1.68 1.68 0 0 0-1.62-1c-2.12 0-2.16 2.5-2.16 2.82a3.12 3.12 0 0 0 1 2.45 2.06 2.06 0 0 0 1.16.36 1.92 1.92 0 0 0 1.05-.3 2.15 2.15 0 0 0 .8-1.57h1.8a3.66 3.66 0 0 1-.74 2 3.43 3.43 0 0 1-2.93 1.35 3.8 3.8 0 0 1-2.44-.78 4.6 4.6 0 0 1-1.47-3.54 4.68 4.68 0 0 1 .73-2.57A3.72 3.72 0 0 1 59.15 0a3.63 3.63 0 0 1 2.36.8 3.3 3.3 0 0 1 .69.76 3.35 3.35 0 0 1 .45.94 4 4 0 0 1 .07.49ZM70.65 5.06v.62a3 3 0 0 1-.68 1.93 3.23 3.23 0 0 1-2.77 1.05 3.62 3.62 0 0 1-2.55-.77 2.59 2.59 0 0 1-.75-1.14 5.23 5.23 0 0 1-.25-1.71V.21h1.8v5a3.65 3.65 0 0 0 0 .72c.1.6.42 1.26 1.69 1.26a1.89 1.89 0 0 0 1-.24c.61-.4.61-1.12.62-1.75V.21h1.89ZM77.65 8.5h-5.68V.21h1.81v6.68h3.87ZM84.65 1.75h-2.5V8.5h-1.81V1.75h-2.48V.21h6.79Z"/></svg>